<svg xmlns="http://www.w3.org/2000/svg" viewBox="0 0 512 512" width="512" height="512">
  <defs>
    <linearGradient id="g" x1="0%" x2="100%" y1="0%" y2="100%">
      <stop stop-color="#7b5cff" offset="0%"/>
      <stop stop-color="#9b7bff" offset="100%"/>
    </linearGradient>
  </defs>
  <rect width="512" height="512" rx="96" fill="url(#g)"/>
  <circle cx="160" cy="196" r="26" fill="#fdfbff" opacity="0.88"/>
  <circle cx="256" cy="156" r="34" fill="#fdfbff" opacity="0.9"/>
  <circle cx="352" cy="204" r="28" fill="#fdfbff" opacity="0.86"/>
  <path d="M136 260h240c30 0 54 24 54 54s-24 54-54 54H224l-48 52c-6 6-16 6-22 0a16 16 0 0 1-3-17l15-35H136c-30 0-54-24-54-54s24-54 54-54Z" fill="#fdfbff" opacity="0.9"/>
</svg>
